<svg xmlns="http://www.w3.org/2000/svg" width="147.03" height="127.37" viewBox="0 0 147.03 127.37">
  <metadata><?xpacket begin="﻿" id="W5M0MpCehiHzreSzNTczkc9d"?>
<x:xmpmeta xmlns:x="adobe:ns:meta/" x:xmptk="Adobe XMP Core 5.6-c138 79.159824, 2016/09/14-01:09:01        ">
   <rdf:RDF xmlns:rdf="http://www.w3.org/1999/02/22-rdf-syntax-ns#">
      <rdf:Description rdf:about=""/>
   </rdf:RDF>
</x:xmpmeta>
                                                                                                    
                                                                                                    
                                                                                                    
                                                                                                    
                                                                                                    
                                                                                                    
                                                                                                    
                                                                                                    
                                                                                                    
                                                                                                    
                                                                                                    
                                                                                                    
                                                                                                    
                                                                                                    
                                                                                                    
                                                                                                    
                                                                                                    
                                                                                                    
                                                                                                    
                                                                                                    
                           
<?xpacket end="w"?></metadata>
<defs>
    <style>
      .cls-1 {
        fill: #00b2c9;
        fill-rule: evenodd;
      }
    </style>
  </defs>
  <path id="Forma_1_copy_3" data-name="Forma 1 copy 3" class="cls-1" d="M1229.81,1784.41l-83.3-39.79a1.924,1.924,0,0,0-2.59.9l-18.13,37.94h9.87l13.31-27.88,72.22,34.5-22.58,47.27-12.72-6.07v24.98l7.82,3.74a1.946,1.946,0,0,0,2.6-.92l34.42-72.09A1.918,1.918,0,0,0,1229.81,1784.41Zm-51.65,3.63h-92.32a1.959,1.959,0,0,0-1.96,1.94v79.89a1.968,1.968,0,0,0,1.96,1.95h92.31a1.953,1.953,0,0,0,1.95-1.95v-79.89A1.935,1.935,0,0,0,1178.16,1788.04Zm-5.33,61.23h-5.86c-3.4-8.74-7.6-20.97-13.96-19.34-7.47,1.91-11.19,19.34-11.19,19.34s-3.82-19.67-14.35-30.2-20.74,30.2-20.74,30.2h-13.94v-52.39h80.04v52.39Zm-67.12-47.68a6.53,6.53,0,1,1-6.53,6.53A6.525,6.525,0,0,1,1105.71,1801.59Zm43.81,11.14a21.086,21.086,0,0,0,4.05-.39,13.16,13.16,0,0,0,5.04.96c4.82,0,8.71-2.35,8.71-5.25s-3.89-5.25-8.71-5.25a12.93,12.93,0,0,0-4.87.9,3.133,3.133,0,0,0-2.2-.9h-1.26a3.107,3.107,0,0,0-3.07,2.79c-3.9.4-6.8,1.82-6.8,3.5C1140.41,1811.1,1144.49,1812.73,1149.52,1812.73Z" transform="translate(-1083.88 -1744.44)"/>
</svg>
